<?xml version="1.0" encoding="UTF-8"?>
<!DOCTYPE svg PUBLIC "-//W3C//DTD SVG 1.1//EN" "http://www.w3.org/Graphics/SVG/1.1/DTD/svg11.dtd">
<svg version="1.1" id="Layer_1" xmlns="http://www.w3.org/2000/svg" xmlns:xlink="http://www.w3.org/1999/xlink" x="0px" y="0px" width="100px" height="100px" viewBox="0 0 100 100" enable-background="new 0 0 100 100" xml:space="preserve">
<path d="M40.747,99.779V49.628h-16.5v-16.34h16.5c0,0,0-11.955,0-14.396c0-2.446-0.511-18.805,21.168-18.805  c2.902,0,8.419,0,14.223,0c0,7.108,0,14.788,0,17.013c-4.346,0-10.646,0-12.868,0s-4.473,2.249-4.473,3.92c0,1.665,0,12.21,0,12.21  s16.581,0,18.387,0c-0.627,8.566-1.923,16.399-1.923,16.399H58.719v50.397L40.747,99.779z"/>
</svg>