<?xml version="1.0" encoding="UTF-8"?>
<!DOCTYPE svg PUBLIC "-//W3C//DTD SVG 1.1//EN" "http://www.w3.org/Graphics/SVG/1.1/DTD/svg11.dtd">
<svg version="1.1" id="Layer_1" xmlns="http://www.w3.org/2000/svg" xmlns:xlink="http://www.w3.org/1999/xlink" x="0px" y="0px" width="100px" height="100px" viewBox="0 0 100 100" enable-background="new 0 0 100 100" xml:space="preserve">
<path d="M31.465,90.096c37.727,0,58.363-31.254,58.363-58.36c0-0.887,0-1.771-0.062-2.651  c4.015-2.903,7.479-6.498,10.233-10.617c-3.743,1.659-7.714,2.746-11.781,3.227c4.283-2.563,7.487-6.594,9.019-11.343  c-4.026,2.388-8.432,4.072-13.025,4.977c-7.769-8.26-20.761-8.657-29.02-0.891c-5.328,5.012-7.588,12.475-5.934,19.598  c-16.493-0.827-31.857-8.617-42.273-21.429c-5.443,9.371-2.662,21.36,6.351,27.38c-3.264-0.097-6.457-0.978-9.309-2.567  c0,0.084,0,0.171,0,0.259c0.003,9.764,6.885,18.174,16.455,20.106c-3.018,0.825-6.188,0.944-9.26,0.354  c2.687,8.354,10.386,14.078,19.162,14.243c-7.262,5.708-16.234,8.806-25.473,8.799c-1.632-0.006-3.261-0.104-4.883-0.297  c9.38,6.02,20.294,9.213,31.438,9.197"/>
</svg>