<?xml version="1.0" standalone="no"?>
<!DOCTYPE svg PUBLIC "-//W3C//DTD SVG 20010904//EN"
 "http://www.w3.org/TR/2001/REC-SVG-20010904/DTD/svg10.dtd">
<svg version="1.0" xmlns="http://www.w3.org/2000/svg"
 width="980.000000pt" height="980.000000pt" viewBox="0 0 980.000000 980.000000"
 preserveAspectRatio="xMidYMid meet">

<g transform="translate(0.000000,980.000000) scale(0.100000,-0.100000)"
fill="#000000" stroke="none">
<path d="M4560 9789 c-985 -72 -1932 -438 -2693 -1042 -334 -265 -667 -609
-913 -943 -816 -1107 -1129 -2515 -858 -3864 152 -763 486 -1483 962 -2080
266 -333 607 -663 939 -907 1677 -1236 3972 -1271 5683 -87 432 299 845 697
1155 1114 1317 1773 1281 4226 -89 5955 -193 244 -483 541 -711 730 -758 629
-1646 1003 -2635 1110 -174 19 -664 27 -840 14z m761 -455 c926 -87 1814 -469
2502 -1074 697 -614 1176 -1393 1398 -2275 90 -358 129 -688 129 -1085 0 -702
-139 -1312 -441 -1938 -216 -447 -474 -815 -823 -1171 -256 -261 -446 -418
-731 -606 -209 -138 -302 -191 -526 -299 -478 -231 -978 -370 -1508 -420 -217
-21 -625 -21 -842 0 -922 87 -1788 457 -2495 1067 -129 112 -389 375 -495 502
-234 279 -410 548 -578 885 -246 495 -393 1009 -445 1559 -21 214 -21 626 -1
837 86 906 440 1751 1024 2449 106 127 366 390 495 502 540 465 1168 790 1851
958 207 51 429 89 630 109 198 19 652 20 856 0z"/>
<path d="M5860 6560 c-861 -556 -1577 -1023 -1591 -1038 -15 -15 -478 -727
-1030 -1582 -1116 -1728 -1045 -1606 -976 -1675 58 -58 83 -52 261 62 994 638
2986 1929 3003 1946 12 12 475 724 1029 1582 1120 1732 1049 1612 981 1680
-71 71 63 148 -1677 -975z m-835 -1212 c115 -28 242 -136 295 -250 84 -180 44
-395 -99 -531 -182 -174 -453 -175 -639 -3 -195 181 -195 491 0 672 124 114
278 153 443 112z"/>
</g>
</svg>
