<svg version="1.1" xmlns="http://www.w3.org/2000/svg" xmlns:xlink="http://www.w3.org/1999/xlink" x="0px" y="0px" width="100px" height="100px" viewBox="0 0 100 100" enable-background="new 0 0 100 100" xml:space="preserve"><circle fill="#1c437a" cx="51" cy="52" r="41.5"/><linearGradient id="SVGID_1_" gradientUnits="userSpaceOnUse" x1="49.9995" y1="8.5" x2="49.9995" y2="91.5005"><stop  offset="0" style="stop-color:#1b6bd9"/><stop  offset="1" style="stop-color:#2257a5"/></linearGradient><circle fill="url(#SVGID_1_)" cx="50" cy="50" r="41.5"/><g><path fill="#FFFFFF" d="M70.765,47.179c-5.281,0-9.576,4.293-9.576,9.58c0,5.281,4.295,9.577,9.576,9.577s9.577-4.296,9.577-9.577C80.342,51.473,76.046,47.179,70.765,47.179z M70.765,61.738c-2.746,0-4.979-2.233-4.979-4.979c0-2.747,2.232-4.981,4.979-4.981c2.747,0,4.982,2.234,4.982,4.981C75.747,59.505,73.512,61.738,70.765,61.738z"/><path fill="#FFFFFF" d="M73.761,45.401c1.75,0.066,1.901-10.088-11.034-13.637c-2.746-0.756-0.521,3.016-0.736,5.158c0,0-11.774-6.255-16.114,1.607c-1.618,2.934-1.992,4.34-6.26,4.34c-4.271,0-2.525-3.674-8.144-3.745c-3.536-0.04-7.157,1.629-6.8,2.969c0.293,1.098,10.108,1.552,13.939,8.959c-7.457,3.359-10.357,4.307-9.76,5.925c0.615,1.682,14.765,3.507,14.765,3.507s14.938,2.711,15.159-0.287C59.349,52.344,61.938,44.971,73.761,45.401z"/><path fill="#FFFFFF" d="M29.229,61.738c-2.742,0-4.979-2.233-4.979-4.979c0-2.747,2.237-4.981,4.979-4.981c0.987,0,1.902,0.289,2.672,0.782l4.487-2.158c-1.752-1.975-4.313-3.222-7.161-3.222c-5.281,0-9.572,4.293-9.572,9.58c0,5.281,4.292,9.577,9.572,9.577c3.688,0,6.89-2.093,8.493-5.148l-4.79-1.106C32.019,61.097,30.701,61.738,29.229,61.738z"/></g></svg>